<svg width="59" height="26" viewBox="0 0 59 26" fill="none" xmlns="http://www.w3.org/2000/svg">
<path d="M6 25.28C4.11 25.28 2.75667 24.93 1.94 24.23C1.14667 23.53 0.645 22.3983 0.435 20.835C0.225 19.2483 0.12 16.6233 0.12 12.96C0.12 9.29667 0.225 6.68333 0.435 5.12C0.645 3.53333 1.14667 2.39 1.94 1.69C2.75667 0.989999 4.11 0.639999 6 0.639999C7.91333 0.639999 9.26667 0.989999 10.06 1.69C10.8767 2.39 11.3783 3.52167 11.565 5.085C11.775 6.64833 11.88 9.27333 11.88 12.96C11.88 16.6233 11.775 19.2483 11.565 20.835C11.355 22.3983 10.8417 23.53 10.025 24.23C9.23167 24.93 7.89 25.28 6 25.28ZM6 21.465C6.60667 21.465 7.015 21.325 7.225 21.045C7.45833 20.765 7.61 20.0767 7.68 18.98C7.75 17.8833 7.785 15.8767 7.785 12.96C7.785 10.0433 7.75 8.03667 7.68 6.94C7.61 5.84333 7.45833 5.155 7.225 4.875C7.015 4.595 6.60667 4.455 6 4.455C5.39333 4.455 4.97333 4.595 4.74 4.875C4.53 5.155 4.39 5.83167 4.32 6.905C4.25 7.97833 4.215 9.99667 4.215 12.96C4.215 15.9233 4.25 17.9417 4.32 19.015C4.39 20.0883 4.53 20.765 4.74 21.045C4.97333 21.325 5.39333 21.465 6 21.465ZM14.3437 21.22C15.9303 21.3833 17.167 21.465 18.0537 21.465C19.0337 21.465 19.7337 21.3833 20.1537 21.22C20.5737 21.0333 20.8537 20.6833 20.9937 20.17C21.157 19.6333 21.2387 18.77 21.2387 17.58C21.2387 16.32 21.1687 15.445 21.0287 14.955C20.8887 14.4417 20.6087 14.1033 20.1887 13.94C19.7687 13.7767 19.0337 13.695 17.9837 13.695C16.8637 13.695 15.6853 13.7883 14.4487 13.975V0.919999H24.6687V4.735H18.3687V10.125C18.9053 9.96167 19.5937 9.88 20.4337 9.88C21.7637 9.88 22.7903 10.16 23.5137 10.72C24.2603 11.28 24.762 12.085 25.0187 13.135C25.2987 14.1617 25.4387 15.4917 25.4387 17.125C25.4387 19.225 25.2753 20.8583 24.9487 22.025C24.622 23.1683 24.027 23.9967 23.1637 24.51C22.3003 25.0233 21.052 25.28 19.4187 25.28C18.6487 25.28 17.7853 25.2217 16.8287 25.105C15.872 24.9883 15.0437 24.8483 14.3437 24.685V21.22Z" fill="white"/>
<path d="M27.8862 25V20.765H32.2262V25H27.8862ZM35.4233 4.6H39.7033L39.8633 8H40.1833C40.5299 6.58667 41.0233 5.61333 41.6633 5.08C42.3033 4.54667 43.1699 4.28 44.2633 4.28V9.12C42.7699 9.12 41.6766 9.56 40.9833 10.44C40.2899 11.2933 39.9433 12.84 39.9433 15.08V25H35.4233V4.6ZM54.4027 22.52H54.1227C53.5893 24.3867 52.2827 25.32 50.2027 25.32C49.056 25.32 48.1893 25.0933 47.6027 24.64C47.0427 24.16 46.656 23.4267 46.4427 22.44C46.256 21.4267 46.1627 20 46.1627 18.16V4.6H50.6827V16C50.6827 17.7067 50.7227 18.9067 50.8027 19.6C50.8827 20.2933 51.0293 20.7467 51.2427 20.96C51.4827 21.1467 51.896 21.24 52.4827 21.24C53.096 21.24 53.5227 21.0667 53.7627 20.72C54.0293 20.3733 54.1893 19.8133 54.2427 19.04C54.296 18.24 54.3227 16.84 54.3227 14.84V4.6H58.8427V25H54.5627L54.4027 22.52Z" fill="#FF0000"/>
</svg>
